<svg width="68" height="69" viewBox="0 0 68 69" fill="none" xmlns="http://www.w3.org/2000/svg">
<path d="M37.3355 57.0847C36.9692 56.743 36.6867 56.4802 36.3566 56.1714C37.283 55.1826 38.1946 54.2118 39.1785 53.1605C37.6378 53.1605 36.1989 53.1605 34.7288 53.1605C34.7288 52.722 34.7288 52.3376 34.7288 51.8974C36.0445 51.8974 37.3618 51.8974 38.6792 51.8974C38.6989 51.8596 38.7169 51.8218 38.7367 51.7841C37.894 50.9874 37.053 50.1924 36.1677 49.3547C36.4551 49.0475 36.7261 48.7568 37.0349 48.425C37.623 48.9769 38.1897 49.5074 38.7564 50.0396C39.3263 50.5751 39.8865 51.1221 40.4712 51.6412C40.6108 51.766 40.8293 51.8547 41.0166 51.8645C41.6079 51.8925 42.2025 51.8744 42.8727 51.8744C42.421 51.4161 42.0366 51.0235 41.6112 50.5915C41.8871 50.2975 42.1582 50.0068 42.4637 49.6816C43.0337 50.2138 43.6168 50.6934 44.1178 51.2469C44.5711 51.7463 45.0688 51.9171 45.7341 51.8892C46.9167 51.8383 48.1043 51.8744 49.3543 51.8744C49.2705 51.7512 49.2311 51.6691 49.1703 51.6083C48.2538 50.6885 47.3422 49.762 46.4059 48.8619C46.2482 48.7108 45.9772 48.6106 45.7554 48.6057C45.0852 48.5909 44.4151 48.6402 43.7449 48.6566C42.9252 48.6763 43.0862 48.7354 43.0402 47.9766C43.0287 47.7992 43.0386 47.6201 43.0386 47.4115C43.6463 47.3836 44.2097 47.3589 44.7715 47.3327C44.7912 47.2982 44.8109 47.2653 44.8306 47.2308C44.4249 46.8366 44.0209 46.4407 43.6086 46.0531C43.5593 46.0055 43.4607 45.989 43.3868 45.9923C41.8099 46.0449 40.2331 46.0942 38.6562 46.1631C38.3375 46.1763 38.1848 46.1057 38.2176 45.7558C38.2422 45.4946 38.2225 45.2285 38.2225 44.8967C39.5497 44.854 40.8671 44.8113 42.2945 44.7653C41.1858 43.6943 40.1493 42.6924 39.0849 41.6658C39.4725 41.2929 39.7616 41.0169 40.1049 40.6851C41.0297 41.6313 41.9528 42.5725 42.9318 43.5744C42.9318 42.3113 42.9318 41.15 42.9318 39.9476C43.3228 39.9476 43.717 39.9476 44.1506 39.9476C44.1818 40.8724 44.213 41.7906 44.2426 42.7071C44.2607 43.2936 44.2935 43.88 44.2837 44.4664C44.2771 44.8047 44.397 45.0429 44.6319 45.2712C44.9867 45.6162 45.3136 45.989 45.6536 46.3504C45.6881 46.3241 45.7226 46.2995 45.7587 46.2732C45.7587 45.7098 45.7587 45.148 45.7587 44.5403C46.1693 44.5403 46.5537 44.5403 46.9923 44.5403C47.0038 44.6766 47.0219 44.8376 47.0284 44.9985C47.0563 45.8083 47.0728 46.6181 47.1122 47.4279C47.1204 47.5823 47.1664 47.7745 47.2666 47.878C48.1848 48.8159 49.1178 49.739 50.0475 50.6655C50.0738 50.6917 50.1165 50.7016 50.1904 50.7361C50.2003 50.6113 50.215 50.5061 50.215 50.4027C50.2167 49.2151 50.2249 48.0275 50.2068 46.8399C50.2035 46.6773 50.1 46.4802 49.9801 46.3635C49.2623 45.6622 48.5248 44.9788 47.7561 44.2545C48.0518 43.944 48.3244 43.6566 48.6316 43.333C49.1441 43.8093 49.6303 44.2627 50.2068 44.8014C50.2068 44.0886 50.2117 43.4759 50.1986 42.8616C50.197 42.8123 50.0787 42.7696 50.0212 42.7154C48.8008 41.5688 47.5803 40.4223 46.327 39.2429C46.6161 38.9325 46.8872 38.6418 47.1943 38.3132C48.1864 39.2413 49.1556 40.148 50.1986 41.1253C50.1986 39.5862 50.1986 38.1555 50.1986 36.6887C50.6306 36.6887 51.0265 36.6887 51.465 36.6887C51.465 38.0061 51.465 39.3251 51.465 40.6441C51.4995 40.6638 51.5324 40.6835 51.5669 40.7032C52.3717 39.854 53.1783 39.0064 54.0176 38.1211C54.3248 38.4101 54.6139 38.6828 54.9358 38.9851C54.8175 39.1181 54.7206 39.2314 54.6204 39.3382C53.6546 40.3665 52.6789 41.3865 51.7262 42.4263C51.5932 42.5725 51.5061 42.8106 51.4946 43.011C51.4634 43.5531 51.4831 44.0984 51.4831 44.5797C51.925 44.1805 52.3915 43.7584 52.9089 43.2919C53.2144 43.581 53.5101 43.8602 53.8353 44.169C53.0846 44.9558 52.3619 45.7114 51.6474 46.4719C51.5735 46.5508 51.4913 46.6674 51.4897 46.766C51.4798 48.2607 51.4831 49.7538 51.4831 51.3356C51.6244 51.2207 51.7196 51.1566 51.8001 51.0778C52.7216 50.1612 53.6497 49.2528 54.5498 48.3166C54.7009 48.1589 54.7995 47.8862 54.8028 47.6645C54.811 46.8826 54.7683 46.1007 54.7453 45.3189C54.742 45.1825 54.7453 45.0462 54.7453 44.8737C55.1707 44.8737 55.5534 44.8737 56.0248 44.8737C56.0248 45.47 56.0248 46.0744 56.0248 46.6789C56.0692 46.6953 56.1119 46.7101 56.1563 46.7265C56.5538 46.3274 56.9546 45.9315 57.3438 45.5242C57.3849 45.4798 57.3701 45.3747 57.3685 45.2975C57.3159 43.65 57.2601 42.0025 57.2075 40.3566C57.2059 40.3172 57.2272 40.2778 57.2502 40.194C57.6379 40.194 58.0321 40.194 58.4756 40.194C58.5183 41.5113 58.5594 42.8303 58.6053 44.2364C59.6632 43.1391 60.6635 42.101 61.6852 41.0399C62.0613 41.4276 62.3389 41.7134 62.6757 42.0616C61.7361 42.9683 60.7883 43.8816 59.8406 44.7949C59.8603 44.8326 59.88 44.8704 59.8997 44.9082C60.1707 44.9082 60.4401 44.9148 60.7111 44.9066C61.5078 44.8852 62.3028 44.8639 63.0978 44.831C63.3409 44.8212 63.4658 44.8852 63.4526 45.153C63.4395 45.4437 63.4493 45.7361 63.4493 46.0728C63.2933 46.0876 63.1471 46.1073 62.9993 46.1122C61.5899 46.1582 60.1789 46.1927 58.7696 46.2535C58.5824 46.2617 58.3705 46.3586 58.2243 46.4802C57.8005 46.8317 57.403 47.216 56.9956 47.5889C57.0285 47.6234 57.0613 47.6595 57.0942 47.694C57.5327 47.694 57.9746 47.7203 58.4115 47.6858C58.7696 47.6579 58.8862 47.7877 58.8583 48.1293C58.8369 48.3905 58.8534 48.6533 58.8534 49.0393C57.945 49.0393 57.0679 49.0524 56.1924 49.0327C55.7998 49.0245 55.514 49.1494 55.2413 49.4368C54.5498 50.1661 53.8238 50.8642 53.1142 51.5755C53.0485 51.6412 52.9926 51.72 52.8957 51.835C53.0468 51.8514 53.1487 51.8711 53.2522 51.8711C54.425 51.8728 55.5994 51.8826 56.7722 51.8613C56.9661 51.858 57.2026 51.7529 57.3406 51.6165C57.9532 51.0088 58.5364 50.3731 59.1622 49.7144C59.4776 50.0134 59.7667 50.286 60.0804 50.5833C59.6944 51.0005 59.3363 51.3866 58.8862 51.8728C59.3938 51.8728 59.8028 51.8317 60.2019 51.8826C60.6947 51.9467 60.928 51.628 61.2023 51.3356C62.0712 50.4092 62.9434 49.4861 63.8567 48.517C64.1606 48.8011 64.4513 49.0722 64.7864 49.3842C64.0324 50.1891 63.2933 50.9759 62.4769 51.8481C64.0522 51.8481 65.5305 51.8481 67.04 51.8481C67.04 52.2949 67.04 52.6776 67.04 53.1244C65.4533 53.1244 63.86 53.1244 62.2667 53.1244C62.2502 53.1622 62.2338 53.1983 62.219 53.2361C63.152 54.1198 64.0866 55.0052 65.0476 55.9168C64.7502 56.2305 64.4776 56.5196 64.1753 56.8383C63.5101 56.2125 62.8646 55.6195 62.2322 55.0117C61.6211 54.4237 61.0232 53.8209 60.4155 53.2279C60.3711 53.1852 60.3005 53.1458 60.2414 53.1458C59.6467 53.1392 59.0521 53.1425 58.4279 53.1425C58.8698 53.6139 59.2722 54.0443 59.7075 54.5091C59.4299 54.8048 59.1556 55.0939 58.8501 55.4175C58.1586 54.767 57.4802 54.1494 56.8297 53.5038C56.562 53.2378 56.2893 53.1244 55.9082 53.1343C54.9588 53.1605 54.0078 53.1425 53.0583 53.1441C52.9253 53.1441 52.7939 53.1573 52.6608 53.1638C52.6231 53.2164 52.5853 53.269 52.5491 53.3215C52.7857 53.5104 53.0419 53.6796 53.2571 53.8899C53.9963 54.6126 54.7124 55.3567 55.4598 56.0712C55.5912 56.1977 55.8195 56.2765 56.0068 56.2798C56.856 56.3012 57.7069 56.2897 58.6234 56.2897C58.6382 56.6313 58.6563 57.0239 58.6743 57.4625C58.1076 57.4871 57.5853 57.5117 56.9135 57.5413C57.4785 58.0932 57.9516 58.5679 58.4444 59.0196C58.515 59.0853 58.6858 59.0541 58.809 59.0508C59.9687 59.0164 61.1267 58.9769 62.2847 58.9424C62.518 58.9359 62.7529 58.9408 63.0338 58.9408C63.0338 59.3564 63.0338 59.7506 63.0338 60.2417C61.9661 60.2417 60.8968 60.2417 59.8274 60.2417C59.8176 60.2828 59.8061 60.3255 59.7962 60.3666C60.8655 61.3899 61.9349 62.4149 63.0009 63.4349C62.6067 63.8357 62.3274 64.1199 61.9759 64.4796C60.8688 63.3446 59.7552 62.203 58.6004 61.0187C58.6004 62.3837 58.6004 63.6599 58.6004 64.9789C58.2358 64.9789 57.8383 64.9789 57.4128 64.9789C57.403 64.8952 57.38 64.79 57.3783 64.6833C57.3455 63.0653 57.3143 61.4474 57.2798 59.8294C57.2781 59.7687 57.2535 59.6931 57.2124 59.6487C56.7624 59.1806 56.3074 58.7158 55.7719 58.1671C55.7719 58.8997 55.7719 59.4911 55.7719 60.1235C55.353 60.1235 54.9572 60.1235 54.5202 60.1235C54.4907 59.2102 54.4398 58.2936 54.4381 57.3754C54.4381 56.996 54.3248 56.7282 54.0505 56.4671C53.3031 55.7542 52.5836 55.0101 51.8527 54.2808C51.7591 54.1872 51.6523 54.105 51.4831 53.9572C51.4831 54.6553 51.4831 55.2647 51.4831 55.8725C51.4831 56.2502 51.534 56.6346 51.4733 57.0025C51.286 58.1409 51.6835 58.9851 52.6231 59.634C52.9861 59.8836 53.2768 60.2384 53.6415 60.5834C53.3589 60.8922 53.0928 61.1862 52.7906 61.5164C52.3701 61.132 51.966 60.7624 51.488 60.3255C51.488 61.1271 51.4782 61.8317 51.4995 62.5348C51.5028 62.6465 51.6342 62.768 51.7311 62.86C52.7528 63.8291 53.7794 64.795 54.8455 65.7986C54.5564 66.1107 54.2854 66.3998 53.9815 66.7283C53.1602 65.9628 52.3635 65.2188 51.4815 64.3958C51.4815 66.0055 51.4815 67.4904 51.4815 69C51.0511 69 50.6667 69 50.2298 69C50.2298 67.3902 50.2298 65.7953 50.2298 64.2003C50.197 64.1856 50.1641 64.1691 50.1313 64.1544C49.2475 65.089 48.3638 66.0236 47.4456 66.996C47.1319 66.6971 46.8445 66.4244 46.5258 66.1205C46.9989 65.6146 47.444 65.1366 47.8908 64.6603C48.5232 63.9885 49.1161 63.2739 49.8044 62.6662C50.1822 62.3327 50.2397 61.996 50.22 61.5624C50.2019 61.1764 50.2167 60.7887 50.2167 60.3255C49.7715 60.7871 49.3822 61.1895 48.9634 61.6231C48.625 61.3028 48.3359 61.0285 48.0189 60.7279C48.7006 60.0019 49.3592 59.3038 50.0114 58.5991C50.1001 58.5022 50.2052 58.3692 50.2068 58.2526C50.2216 57.0403 50.215 55.8281 50.215 54.5452C50.082 54.6471 49.9916 54.6996 49.921 54.7719C49.1079 55.5801 48.2932 56.3833 47.4966 57.2062C47.3783 57.3278 47.3011 57.5446 47.3011 57.7171C47.3027 58.5137 47.3323 59.3087 47.3684 60.1054C47.3799 60.3666 47.3175 60.5013 47.0301 60.4865C46.741 60.4717 46.4502 60.4832 46.1119 60.4832C46.0856 59.9083 46.0609 59.3564 46.033 58.6993C45.7998 58.9145 45.6437 59.1001 45.4499 59.2332C44.443 59.9247 44.19 60.8659 44.328 62.0469C44.4381 62.9963 44.351 63.9687 44.351 64.9789C44.011 64.9789 43.6168 64.9789 43.124 64.9789C43.124 63.9211 43.124 62.8534 43.124 61.7874C43.0879 61.7825 43.0517 61.7792 43.0156 61.7743C41.989 62.837 40.9624 63.8998 39.8947 65.0036C39.5152 64.5716 39.2524 64.2726 38.9568 63.9359C40.0474 62.8682 41.1874 61.7513 42.3274 60.6359C42.3027 60.6047 42.2781 60.5735 42.2534 60.544C40.9706 60.544 39.6877 60.544 38.3687 60.544C38.3687 60.1612 38.3687 59.7769 38.3687 59.2841C38.8467 59.2841 39.3296 59.289 39.8126 59.2825C41.0527 59.2677 42.2912 59.2496 43.5314 59.2282C43.5938 59.2266 43.671 59.2003 43.7153 59.1576C44.1835 58.7059 44.645 58.2493 45.1871 57.7171C44.4446 57.7171 43.827 57.7171 43.1158 57.7171C43.1158 57.3475 43.0977 57.0025 43.1289 56.6625C43.1355 56.5853 43.3096 56.4703 43.4115 56.4654C44.3609 56.4244 45.3103 56.4063 46.2597 56.3734C46.373 56.3702 46.5192 56.3537 46.5898 56.2831C47.5918 55.291 48.5839 54.2874 49.5777 53.2854C49.5941 53.269 49.5925 53.2345 49.6073 53.177C49.5136 53.1655 49.4233 53.1441 49.333 53.1441C47.9368 53.1425 46.5389 53.131 45.1427 53.154C44.9374 53.1573 44.6877 53.2772 44.5399 53.425C43.8993 54.064 43.2883 54.7341 42.6378 55.4224C42.3241 55.1267 42.0333 54.8541 41.713 54.5518C42.1335 54.1001 42.5277 53.6747 43.0222 53.1425C42.5146 53.1425 42.1204 53.1753 41.7344 53.1343C41.1841 53.0751 40.8047 53.2377 40.4269 53.6796C39.5645 54.6865 38.6217 55.6244 37.7166 56.5935C37.5786 56.7381 37.4735 56.904 37.3355 57.0847Z" fill="#1F1F1F"/>
<path d="M18.3589 28.2624C12.8103 28.2558 8.36872 23.7831 8.38187 18.2114C8.39336 12.7055 12.8908 8.27053 18.4427 8.28532C23.9092 8.3001 28.3622 12.7876 28.3573 18.2739C28.3524 23.8094 23.8895 28.2673 18.3589 28.2624Z" fill="#1F1F1F"/>
<path d="M17.4128 53.1983C17.0794 52.8879 16.7969 52.6234 16.4766 52.3261C27.2618 41.8678 38.0273 31.4292 48.8092 20.9741C49.1196 21.2747 49.4054 21.5523 49.7257 21.8644C38.929 32.3359 28.1652 42.7728 17.4128 53.1983Z" fill="#1F1F1F"/>
<path d="M17.7546 6.33557C17.7546 4.27906 17.7546 2.27511 17.7546 0.244873C18.162 0.244873 18.5464 0.244873 18.9849 0.244873C18.9948 0.386135 19.0112 0.532325 19.0112 0.678515C19.0129 2.42294 19.0046 4.16901 19.0194 5.91343C19.0227 6.23866 18.9406 6.37335 18.6006 6.3405C18.3394 6.31422 18.0733 6.33557 17.7546 6.33557Z" fill="#1F1F1F"/>
<path d="M18.978 36.3192C18.5674 36.3192 18.183 36.3192 17.7642 36.3192C17.7642 34.2971 17.7642 32.2833 17.7642 30.2482C18.1715 30.2482 18.5575 30.2482 18.978 30.2482C18.978 32.2702 18.978 34.2824 18.978 36.3192Z" fill="#1F1F1F"/>
<path d="M5.97234 31.4128C5.75552 31.173 5.49599 30.8855 5.25781 30.6244C6.65565 29.2364 8.0847 27.8155 9.51867 26.3931C9.72728 26.605 10.0049 26.8891 10.2595 27.1503C8.85507 28.5465 7.42602 29.9657 5.97234 31.4128Z" fill="#1F1F1F"/>
<path d="M10.312 9.43982C10.0475 9.67307 9.75681 9.92931 9.494 10.1609C8.10109 8.75815 6.68353 7.3291 5.24463 5.8787C5.46638 5.66845 5.75547 5.39414 6.02157 5.14282C7.42762 6.55052 8.84353 7.96807 10.312 9.43982Z" fill="#1F1F1F"/>
<path d="M27.2091 10.1922C26.9742 9.95403 26.695 9.6715 26.4338 9.40541C27.8645 7.97307 29.2821 6.55717 30.7275 5.11169C30.9641 5.37451 31.2302 5.67017 31.47 5.93627C30.0787 7.3259 28.6562 8.74673 27.2091 10.1922Z" fill="#1F1F1F"/>
<path d="M31.4898 30.6522C31.25 30.8855 30.9724 31.1549 30.7128 31.4078C29.3117 29.9968 27.8974 28.5727 26.4536 27.119C26.6967 26.9071 26.9957 26.6476 27.265 26.4127C28.6382 27.7908 30.0607 29.2183 31.4898 30.6522Z" fill="#1F1F1F"/>
<path d="M36.4205 17.7102C36.4205 18.0797 36.4205 18.4641 36.4205 18.8813C34.4051 18.8813 32.4077 18.8813 30.3315 18.8813C30.3315 18.5314 30.32 18.1767 30.3413 17.8235C30.3446 17.7578 30.4809 17.6477 30.5565 17.6477C32.48 17.6428 34.4018 17.651 36.3252 17.6576C36.3499 17.6576 36.3729 17.6822 36.4205 17.7102Z" fill="#1F1F1F"/>
<path d="M0.32666 18.8882C0.32666 18.4808 0.32666 18.085 0.32666 17.6628C2.3454 17.6628 4.34606 17.6628 6.38122 17.6628C6.38122 18.0735 6.38122 18.4677 6.38122 18.8882C4.3592 18.8882 2.35854 18.8882 0.32666 18.8882Z" fill="#1F1F1F"/>
</svg>
