<svg width="57" height="41" viewBox="0 0 57 41" fill="none" xmlns="http://www.w3.org/2000/svg">
<path d="M25.7863 22.1185C17.8797 22.1171 9.97316 22.0884 2.06658 22.1459C0.705928 22.1555 0.187128 21.6421 0.497861 20.4211C0.607371 19.9913 1.16313 19.5683 1.61486 19.363C2.00635 19.185 2.54021 19.3205 3.01247 19.3205C18.3027 19.3178 33.5916 19.3082 48.8818 19.3233C50.9557 19.326 52.7557 18.8592 53.7577 16.8607C54.883 14.613 53.8467 11.9547 51.5251 10.9663C49.3171 10.0259 46.7683 11.1498 45.832 13.4262C45.6144 13.9573 45.3091 14.6431 44.8615 14.8361C44.3687 15.0497 43.5405 14.9593 43.1011 14.6527C42.8356 14.4665 42.9081 13.5905 43.0368 13.0758C43.8499 9.81102 47.1105 7.54691 50.4957 7.83848C53.9562 8.13689 56.7159 10.9417 56.9801 14.4296C57.2388 17.8367 54.9692 21.0617 51.6798 21.8324C50.7243 22.0569 49.7086 22.1034 48.7217 22.1062C41.0752 22.1281 33.4314 22.1185 25.7863 22.1185Z" fill="#1F1F1F"/>
<path d="M19.4936 26.503C25.2018 26.503 30.91 26.4633 36.6168 26.518C39.7912 26.5482 42.3496 28.6042 43.2106 31.6157C44.0566 34.5752 42.8698 37.8386 40.3469 39.484C37.6804 41.2238 34.187 41.1786 31.8928 39.0254C30.8087 38.0083 30.1653 36.4793 29.4822 35.1036C29.3248 34.786 29.7615 33.7676 30.0394 33.7169C30.7662 33.5869 31.6861 33.257 32.1611 34.4041C32.528 35.2925 33.0098 36.2192 33.686 36.8763C34.97 38.1247 36.9535 38.2109 38.5072 37.317C40.0827 36.4108 40.9575 34.5163 40.6098 32.7669C40.2456 30.9395 38.8165 29.5528 36.9959 29.316C36.4279 29.2421 35.8461 29.2612 35.2712 29.2612C24.2737 29.2585 13.2776 29.264 2.28011 29.2421C1.53818 29.2407 0.533434 29.6172 0.437613 28.2113C0.352743 26.9561 0.686742 26.451 2.05424 26.466C7.86645 26.5317 13.6787 26.4934 19.4922 26.4934C19.4936 26.4975 19.4936 26.5002 19.4936 26.503Z" fill="#1F1F1F"/>
<path d="M24.8308 7.57155C24.6597 4.04124 27.6041 0.951709 31.274 0.719001C35.0932 0.478081 38.5003 3.28699 38.8357 6.95693C39.2367 11.3346 36.2855 14.8567 31.8859 14.8964C21.8371 14.9867 11.7855 14.9169 1.73526 14.947C0.655228 14.9497 0.45674 14.4871 0.423887 13.5275C0.382821 12.3557 0.902988 12.1395 1.9269 12.1422C11.5062 12.1668 21.0856 12.1545 30.6649 12.1504C31.2398 12.1504 31.8216 12.1641 32.3883 12.0833C34.4512 11.7918 35.9884 10.0766 36.0815 8.01096C36.1773 5.87415 34.7387 4.02618 32.6279 3.57583C30.6225 3.14874 28.613 4.23425 27.7958 6.18626C27.0429 7.98358 27.0429 7.98358 24.8308 7.57155Z" fill="#1F1F1F"/>
</svg>
