<svg width="40" height="48" viewBox="0 0 40 48" fill="none" xmlns="http://www.w3.org/2000/svg">
<path d="M39.7217 16.6717C39.714 19.9273 39.8027 23.1841 39.2175 26.4153C37.9826 33.2416 34.6756 38.8253 29.2822 43.1729C26.7779 45.1924 24.0278 46.7964 20.9934 47.8833C20.6256 48.0158 20.1252 48.0492 19.7702 47.9116C12.3599 45.0367 6.73632 40.1939 3.42286 32.8711C1.74555 29.164 1.0278 25.2345 0.982785 21.1853C0.941624 17.4563 0.978924 13.7261 0.957057 9.99719C0.954485 9.49811 1.141 9.37977 1.59763 9.27044C7.73062 7.79636 13.5382 5.55823 18.7142 1.86789C19.1669 1.54504 19.5824 1.16945 19.9966 0.797711C20.2217 0.594478 20.3902 0.530164 20.65 0.76298C24.6658 4.36328 29.5112 6.40461 34.5418 8.06648C36.0828 8.57585 37.6791 8.93086 39.2625 9.29874C39.7165 9.40421 39.723 9.64732 39.723 9.98304C39.7204 12.2134 39.7217 14.4426 39.7217 16.6717ZM36.9742 17.8525C36.9742 16.1379 36.9742 14.4233 36.9742 12.7087C36.9742 11.56 36.9665 11.5922 35.8461 11.304C30.3228 9.88528 25.0439 7.94171 20.6307 4.15104C20.5149 4.052 20.1625 4.04943 20.0519 4.14847C17.9655 6.02129 15.5255 7.31272 12.9941 8.44079C10.1527 9.70777 7.24955 10.8127 4.18048 11.4069C3.72771 11.4944 3.72642 11.7581 3.72642 12.0977C3.73157 15.1848 3.72771 18.2705 3.73156 21.3576C3.73414 23.9893 4.06085 26.5799 4.86735 29.0869C7.32158 36.7209 12.549 41.6873 19.8988 44.5737C20.1818 44.6843 20.5844 44.6483 20.8803 44.5402C23.1943 43.7054 25.3269 42.5234 27.2924 41.048C32.0606 37.4683 35.1168 32.7901 36.3774 26.9401C37.0257 23.9366 36.9948 20.8958 36.9742 17.8525Z" fill="#1F1F1F"/>
<path d="M30.225 20.4199C30.081 20.6026 29.9793 20.7621 29.8481 20.8933C26.4086 24.3341 22.9627 27.7684 19.5322 31.2157C19.163 31.5861 18.8968 31.6131 18.5224 31.235C16.3178 29.0148 14.1015 26.805 11.8814 24.6003C11.5495 24.271 11.5482 23.9983 11.884 23.6768C12.41 23.1738 12.9336 22.6645 13.4301 22.132C13.7838 21.7525 14.0526 21.813 14.3909 22.1564C15.7132 23.5006 17.0535 24.828 18.3874 26.1619C18.9701 26.7446 19.0524 26.7497 19.6286 26.1747C22.1781 23.6318 24.7236 21.0849 27.273 18.5419C27.8403 17.976 27.9033 17.976 28.4564 18.5252C28.9285 18.9934 29.3967 19.4642 29.8597 19.9414C29.9858 20.0752 30.0861 20.236 30.225 20.4199Z" fill="#1F1F1F"/>
</svg>
