<svg width="38" height="38" viewBox="0 0 38 38" fill="none" xmlns="http://www.w3.org/2000/svg">
<path d="M19.0102 37.9998C8.50008 37.9969 0.0165931 29.5134 0.0239305 19.0121C0.0312679 8.51087 8.54117 0.00536888 19.0219 0.0244461C29.507 0.0435233 37.9964 8.55343 37.9758 19.0253C37.9568 29.5369 29.4953 38.0028 19.0102 37.9998ZM18.636 35.2439C22.7287 35.1867 26.1039 34.0611 29.0594 31.7308C29.4483 31.4241 29.4513 31.4241 29.1093 31.0821C26.6132 28.5874 24.117 26.0956 21.6223 23.5995C16.718 18.6922 11.8151 13.782 6.9108 8.87333C6.61437 8.5769 6.58796 8.57984 6.31794 8.91883C4.54376 11.145 3.42261 13.6691 3.00291 16.4778C2.36015 20.7849 3.21569 24.7867 5.75443 28.3424C8.97994 32.8593 13.4558 35.0737 18.636 35.2439ZM35.1979 19.3247C35.2361 17.8895 35.0761 16.4763 34.721 15.091C33.6703 10.9953 31.3913 7.75071 27.8517 5.43944C24.5469 3.28225 20.9076 2.47073 16.9836 2.94619C14.0427 3.30279 11.4057 4.39753 9.06359 6.20546C8.49127 6.64717 8.53089 6.5782 9.0269 7.07421C13.0199 11.0746 17.0173 15.072 21.0133 19.0708C24.3767 22.4358 27.7402 25.7992 31.1036 29.1641C31.3942 29.4547 31.4089 29.4591 31.6686 29.1333C33.9491 26.26 35.0878 22.9758 35.1979 19.3247Z" fill="#1F1F1F"/>
</svg>
