<svg width="24" height="24" viewBox="0 0 24 24" fill="none" xmlns="http://www.w3.org/2000/svg">
<g clip-path="url(#clip0_2018_427)">
<path d="M12.0003 3.91275C12.2872 3.91275 12.522 3.67796 12.522 3.39101V3.13014C12.522 2.84318 12.2872 2.6084 12.0003 2.6084C11.7133 2.6084 11.4785 2.84318 11.4785 3.13014V3.39101C11.4785 3.67796 11.7133 3.91275 12.0003 3.91275Z" fill="white"/>
<path d="M12.0003 20.0869C11.7133 20.0869 11.4785 20.3217 11.4785 20.6087V20.8695C11.4785 21.1565 11.7133 21.3913 12.0003 21.3913C12.2872 21.3913 12.522 21.1565 12.522 20.8695V20.6087C12.522 20.3217 12.2872 20.0869 12.0003 20.0869Z" fill="white"/>
<path d="M3.39101 11.4785H3.13014C2.84318 11.4785 2.6084 11.7133 2.6084 12.0003C2.6084 12.2872 2.84318 12.522 3.13014 12.522H3.39101C3.67796 12.522 3.91275 12.2872 3.91275 12.0003C3.91275 11.7133 3.67796 11.4785 3.39101 11.4785Z" fill="white"/>
<path d="M20.8694 11.4785H20.6085C20.3216 11.4785 20.0868 11.7133 20.0868 12.0003C20.0868 12.2872 20.3216 12.522 20.6085 12.522H20.8694C21.1564 12.522 21.3911 12.2872 21.3911 12.0003C21.3911 11.7133 21.1564 11.4785 20.8694 11.4785Z" fill="white"/>
<path d="M6.10449 5.3743C5.89579 5.1656 5.58275 5.1656 5.37405 5.3743C5.16536 5.58299 5.16536 5.89603 5.37405 6.10473L5.55666 6.28734C5.66101 6.39169 5.79144 6.44386 5.92188 6.44386C6.05231 6.44386 6.18275 6.39169 6.28709 6.28734C6.49579 6.07864 6.49579 5.7656 6.28709 5.5569L6.10449 5.3743Z" fill="white"/>
<path d="M5.55666 17.7132L5.37405 17.8958C5.16536 18.1045 5.16536 18.4175 5.37405 18.6262C5.4784 18.7306 5.60883 18.7827 5.73927 18.7827C5.8697 18.7827 6.00014 18.7306 6.10449 18.6262L6.28709 18.4436C6.49579 18.2349 6.49579 17.9219 6.28709 17.7132C6.0784 17.5045 5.76536 17.5045 5.55666 17.7132Z" fill="white"/>
<path d="M17.8956 5.3743L17.713 5.5569C17.5043 5.7656 17.5043 6.07864 17.713 6.28734C17.8174 6.39169 17.9478 6.44386 18.0783 6.44386C18.2087 6.44386 18.3391 6.39169 18.4435 6.28734L18.6261 6.10473C18.8348 5.89603 18.8348 5.58299 18.6261 5.3743C18.4174 5.1656 18.1043 5.1656 17.8956 5.3743Z" fill="white"/>
<path d="M12.522 11.791V7.04322C12.522 6.75627 12.2872 6.52148 12.0003 6.52148C11.7133 6.52148 11.4785 6.75627 11.4785 7.04322V11.9997C11.4785 12.1302 11.5307 12.2606 11.635 12.365L17.3481 18.078C17.4524 18.1824 17.5829 18.2345 17.7133 18.2345C17.8437 18.2345 17.9742 18.1824 18.0785 18.078C18.2872 17.8693 18.2872 17.5563 18.0785 17.3476L12.522 11.791Z" fill="white"/>
<path d="M12 0C5.37391 0 0 5.37391 0 12C0 18.6261 5.37391 24 12 24C18.6261 24 24 18.6261 24 12C24 5.37391 18.6261 0 12 0ZM12 22.9565C5.94783 22.9565 1.04348 18.0522 1.04348 12C1.04348 5.94783 5.94783 1.04348 12 1.04348C18.0522 1.04348 22.9565 5.94783 22.9565 12C22.9565 18.0522 18.0522 22.9565 12 22.9565Z" fill="white"/>
</g>
<defs>
<clipPath id="clip0_2018_427">
<rect width="24" height="24" fill="white"/>
</clipPath>
</defs>
</svg>
