<svg width="24" height="24" viewBox="0 0 24 24" fill="none" xmlns="http://www.w3.org/2000/svg">
<path d="M21.6371 20.0253H2.36288C1.73639 20.0246 1.13576 19.7754 0.692784 19.3324C0.249807 18.8893 0.000657357 18.2887 0 17.6622V5.75861C0.000657357 5.13212 0.249807 4.53147 0.692784 4.08845C1.13576 3.64543 1.73639 3.39623 2.36288 3.39551H21.6371C22.2636 3.39623 22.8642 3.64543 23.3072 4.08845C23.7502 4.53147 23.9993 5.13212 24 5.75861V17.6622C23.9993 18.2887 23.7502 18.8893 23.3072 19.3324C22.8642 19.7754 22.2636 20.0246 21.6371 20.0253ZM2.36288 4.29866C1.97583 4.29908 1.60475 4.45304 1.33108 4.72675C1.05741 5.00046 0.903514 5.37156 0.903155 5.75861V17.6622C0.903514 18.0493 1.05741 18.4204 1.33108 18.6941C1.60475 18.9678 1.97583 19.1217 2.36288 19.1222H21.6371C22.0242 19.1217 22.3953 18.9678 22.6689 18.6941C22.9426 18.4204 23.0965 18.0493 23.0968 17.6622V5.75861C23.0965 5.37156 22.9426 5.00046 22.6689 4.72675C22.3953 4.45304 22.0242 4.29908 21.6371 4.29866H2.36288Z" fill="white"/>
<path d="M11.9993 14.3688C11.8893 14.3689 11.783 14.3287 11.7004 14.2559L0.817383 4.64905L1.41505 3.97168L11.9993 13.3157L22.5841 3.97281L23.1818 4.65018L12.2987 14.257C12.216 14.3297 12.1095 14.3694 11.9993 14.3688Z" fill="white"/>
<path d="M0.572266 18.6074L7.88337 10.2772L8.56254 10.8733L1.25144 19.2035L0.572266 18.6074Z" fill="white"/>
<path d="M15.4601 10.8643L16.1393 10.2682L23.4505 18.5986L22.7713 19.1947L15.4601 10.8643Z" fill="white"/>
</svg>
