<svg xmlns="http://www.w3.org/2000/svg" xmlns:xlink="http://www.w3.org/1999/xlink" width="62" zoomAndPan="magnify" viewBox="0 0 46.5 30.000001" height="40" preserveAspectRatio="xMidYMid meet" version="1.0"><defs><clipPath id="6de89792b4"><path d="M 0.507812 0 L 45.507812 0 L 45.507812 28.59375 L 0.507812 28.59375 Z M 0.507812 0 " clip-rule="nonzero"/></clipPath></defs><g clip-path="url(#6de89792b4)"><path fill="#ffffff" d="M 43.214844 28.550781 L 3.285156 28.550781 C 2.921875 28.550781 2.570312 28.480469 2.234375 28.339844 C 1.898438 28.203125 1.601562 28.003906 1.34375 27.746094 C 1.085938 27.488281 0.886719 27.195312 0.746094 26.859375 C 0.609375 26.523438 0.539062 26.171875 0.535156 25.808594 L 0.535156 2.683594 C 0.535156 1.175781 1.773438 -0.0585938 3.285156 -0.0585938 L 43.214844 -0.0585938 C 44.726562 -0.0585938 45.964844 1.175781 45.964844 2.683594 L 45.964844 25.808594 C 45.964844 27.316406 44.726562 28.550781 43.214844 28.550781 Z M 43.214844 28.550781 " fill-opacity="1" fill-rule="nonzero"/><path fill="#a7a8ab" d="M 43.050781 28.550781 L 3.449219 28.550781 C 1.839844 28.550781 0.535156 27.269531 0.535156 25.691406 L 0.535156 2.800781 C 0.535156 1.226562 1.839844 -0.0585938 3.449219 -0.0585938 L 43.050781 -0.0585938 C 44.660156 -0.0585938 45.964844 1.226562 45.964844 2.800781 L 45.964844 25.691406 C 45.964844 27.269531 44.660156 28.550781 43.050781 28.550781 Z M 3.449219 1.085938 C 2.484375 1.085938 1.699219 1.855469 1.699219 2.800781 L 1.699219 25.691406 C 1.699219 26.636719 2.484375 27.40625 3.449219 27.40625 L 43.050781 27.40625 C 44.015625 27.40625 44.800781 26.636719 44.800781 25.691406 L 44.800781 2.800781 C 44.800781 1.855469 44.015625 1.085938 43.050781 1.085938 Z M 3.449219 1.085938 " fill-opacity="0.25" fill-rule="nonzero"/></g><path fill="#221f1f" d="M 10.195312 5.878906 L 11.03125 5.878906 L 11.03125 13.386719 L 10.195312 13.386719 Z M 8.007812 5.878906 L 8.84375 5.878906 L 8.84375 13.386719 L 8.007812 13.386719 Z M 16.679688 5.878906 L 18.953125 5.878906 L 18.953125 13.386719 L 16.679688 13.386719 Z M 28.292969 5.878906 L 29.429688 5.878906 L 29.429688 13.386719 L 28.292969 13.386719 Z M 31.074219 5.878906 L 32.207031 5.878906 L 32.207031 13.386719 L 31.074219 13.386719 Z M 35.621094 5.878906 L 37.082031 5.878906 L 37.082031 13.386719 L 35.621094 13.386719 Z M 33.976562 5.878906 L 34.449219 5.878906 L 34.449219 13.386719 L 33.976562 13.386719 Z M 26.339844 5.878906 L 26.8125 5.878906 L 26.8125 13.386719 L 26.339844 13.386719 Z M 25.328125 5.878906 L 25.800781 5.878906 L 25.800781 13.386719 L 25.328125 13.386719 Z M 22.046875 5.878906 L 22.519531 5.878906 L 22.519531 13.386719 L 22.046875 13.386719 Z M 14.503906 5.878906 L 14.976562 5.878906 L 14.976562 13.386719 L 14.503906 13.386719 Z M 13.113281 5.878906 L 13.988281 5.878906 L 13.988281 13.386719 L 13.113281 13.386719 Z M 8.007812 22.992188 L 8.007812 15.269531 L 10.914062 15.269531 C 11.503906 15.269531 11.976562 15.347656 12.335938 15.5 C 12.695312 15.65625 12.972656 15.898438 13.175781 16.222656 C 13.378906 16.546875 13.480469 16.886719 13.480469 17.242188 C 13.480469 17.574219 13.390625 17.882812 13.210938 18.175781 C 13.007812 18.488281 12.738281 18.726562 12.398438 18.882812 C 12.867188 19.019531 13.226562 19.253906 13.476562 19.582031 C 13.730469 19.910156 13.855469 20.300781 13.855469 20.75 C 13.855469 21.113281 13.78125 21.449219 13.625 21.761719 C 13.496094 22.046875 13.304688 22.285156 13.058594 22.480469 C 12.832031 22.644531 12.550781 22.773438 12.210938 22.859375 C 11.800781 22.953125 11.382812 23 10.960938 22.992188 L 8.003906 22.992188 Z M 9.035156 18.515625 L 10.710938 18.515625 C 11.164062 18.515625 11.492188 18.484375 11.6875 18.425781 C 11.925781 18.363281 12.125 18.234375 12.277344 18.039062 C 12.417969 17.835938 12.484375 17.609375 12.472656 17.363281 C 12.480469 17.117188 12.417969 16.894531 12.289062 16.6875 C 12.164062 16.488281 11.988281 16.355469 11.761719 16.28125 C 11.53125 16.210938 11.140625 16.175781 10.582031 16.175781 L 9.035156 16.175781 Z M 9.035156 22.085938 L 10.964844 22.085938 C 11.296875 22.085938 11.527344 22.070312 11.664062 22.046875 C 11.898438 22.003906 12.097656 21.933594 12.253906 21.835938 C 12.425781 21.726562 12.554688 21.582031 12.644531 21.40625 C 12.75 21.21875 12.800781 21 12.800781 20.753906 C 12.800781 20.464844 12.726562 20.214844 12.574219 20 C 12.421875 19.777344 12.214844 19.628906 11.957031 19.550781 C 11.695312 19.464844 11.320312 19.421875 10.828125 19.421875 L 9.035156 19.421875 Z M 14.789062 20.191406 C 14.789062 19.15625 15.078125 18.394531 15.65625 17.894531 C 16.136719 17.480469 16.726562 17.273438 17.417969 17.273438 C 18.191406 17.273438 18.820312 17.527344 19.3125 18.027344 C 19.800781 18.53125 20.046875 19.226562 20.046875 20.113281 C 20.046875 20.832031 19.9375 21.398438 19.722656 21.808594 C 19.503906 22.226562 19.1875 22.542969 18.773438 22.769531 C 18.351562 23 17.902344 23.113281 17.421875 23.109375 C 16.636719 23.109375 16 22.859375 15.515625 22.359375 C 15.03125 21.855469 14.789062 21.132812 14.789062 20.191406 Z M 15.761719 20.195312 C 15.761719 20.910156 15.917969 21.445312 16.234375 21.800781 C 16.546875 22.15625 16.941406 22.332031 17.421875 22.332031 C 17.894531 22.332031 18.285156 22.15625 18.601562 21.796875 C 18.914062 21.441406 19.074219 20.894531 19.074219 20.164062 C 19.074219 19.472656 18.914062 18.949219 18.597656 18.597656 C 18.289062 18.234375 17.898438 18.054688 17.421875 18.0625 C 16.941406 18.0625 16.546875 18.238281 16.234375 18.59375 C 15.917969 18.945312 15.761719 19.480469 15.761719 20.195312 Z M 21.140625 22.992188 L 21.140625 15.269531 L 22.089844 15.269531 L 22.089844 22.992188 Z M 27.390625 21.179688 L 28.375 21.308594 C 28.222656 21.878906 27.9375 22.320312 27.519531 22.636719 C 27.097656 22.953125 26.566406 23.109375 25.914062 23.109375 C 25.097656 23.109375 24.449219 22.859375 23.96875 22.355469 C 23.488281 21.851562 23.246094 21.148438 23.246094 20.238281 C 23.246094 19.300781 23.488281 18.570312 23.972656 18.054688 C 24.460938 17.535156 25.089844 17.273438 25.863281 17.273438 C 26.609375 17.273438 27.222656 17.527344 27.695312 18.035156 C 28.171875 18.546875 28.410156 19.261719 28.410156 20.183594 L 28.402344 20.433594 L 24.222656 20.433594 C 24.257812 21.046875 24.433594 21.515625 24.746094 21.84375 C 25.0625 22.179688 25.453125 22.34375 25.914062 22.332031 C 26.265625 22.332031 26.5625 22.238281 26.804688 22.054688 C 27.054688 21.871094 27.246094 21.578125 27.390625 21.175781 Z M 24.277344 19.65625 L 27.402344 19.65625 C 27.359375 19.1875 27.242188 18.832031 27.042969 18.597656 C 26.742188 18.222656 26.351562 18.039062 25.871094 18.050781 C 25.433594 18.050781 25.066406 18.195312 24.769531 18.488281 C 24.472656 18.777344 24.308594 19.167969 24.277344 19.65625 Z M 31.644531 22.144531 L 31.777344 22.984375 C 31.539062 23.035156 31.300781 23.0625 31.058594 23.066406 C 30.714844 23.066406 30.449219 23.011719 30.257812 22.902344 C 30.070312 22.792969 29.933594 22.652344 29.855469 22.472656 C 29.78125 22.296875 29.742188 21.921875 29.742188 21.351562 L 29.742188 18.128906 L 29.039062 18.128906 L 29.039062 17.394531 L 29.742188 17.394531 L 29.742188 16.011719 L 30.691406 15.441406 L 30.691406 17.394531 L 31.644531 17.394531 L 31.644531 18.128906 L 30.691406 18.128906 L 30.691406 21.40625 C 30.691406 21.679688 30.710938 21.851562 30.742188 21.929688 C 30.777344 22.011719 30.832031 22.074219 30.90625 22.117188 C 31.007812 22.167969 31.117188 22.191406 31.230469 22.183594 Z M 32.226562 20.191406 C 32.226562 19.15625 32.515625 18.394531 33.09375 17.894531 C 33.578125 17.480469 34.164062 17.273438 34.859375 17.273438 C 35.628906 17.273438 36.261719 17.527344 36.75 18.027344 C 37.238281 18.53125 37.484375 19.226562 37.484375 20.113281 C 37.484375 20.832031 37.375 21.398438 37.160156 21.808594 C 36.945312 22.226562 36.628906 22.542969 36.214844 22.769531 C 35.792969 23 35.339844 23.113281 34.859375 23.109375 C 34.074219 23.109375 33.441406 22.859375 32.953125 22.359375 C 32.46875 21.855469 32.226562 21.132812 32.226562 20.191406 Z M 33.199219 20.195312 C 33.199219 20.910156 33.359375 21.445312 33.671875 21.800781 C 33.988281 22.15625 34.382812 22.332031 34.859375 22.332031 C 35.332031 22.332031 35.726562 22.15625 36.042969 21.796875 C 36.355469 21.441406 36.511719 20.894531 36.511719 20.164062 C 36.511719 19.472656 36.351562 18.949219 36.039062 18.597656 C 35.730469 18.234375 35.335938 18.054688 34.859375 18.0625 C 34.382812 18.0625 33.988281 18.238281 33.671875 18.59375 C 33.359375 18.945312 33.199219 19.480469 33.199219 20.195312 Z M 33.199219 20.195312 " fill-opacity="1" fill-rule="nonzero"/></svg>