<svg width="315" height="60" viewBox="0 0 315 60" fill="none" xmlns="http://www.w3.org/2000/svg">
<path d="M35.5474 2.84626C32.6851 0.221405 28.2004 0.392862 25.5492 3.24195L10.2881 19.7034L12.2666 21.5368L27.5277 5.07542C29.1633 3.30792 31.9332 3.2024 33.7139 4.8248L52.9849 22.5129L42.2744 34.0807L44.2661 35.9142L56.8233 22.3546L35.5474 2.84626Z" fill="white"/>
<path d="M47.2211 36.1912L27.8314 18.3184C25.0483 15.7595 21.8167 14.6779 18.4927 15.1791C15.3403 15.654 12.1482 17.5534 9.28594 20.6926L0 30.7964L26.1695 54.8158L26.4992 55.1192L31.8017 49.3946L42.0109 58.852L42.3011 59.129L43.264 58.3244L46.4429 54.8818C49.3183 51.7557 50.9407 48.4185 51.1518 45.2397C51.3496 41.863 50.0042 38.7501 47.2211 36.1912ZM25.998 20.3101C29.2032 23.2515 29.9155 26.8921 28.0557 30.8491C27.9765 31.0206 27.4093 32.0494 23.8348 36.3363C22.3311 38.1301 22.5026 40.7814 24.2173 42.3774L29.81 47.5612L26.3409 51.3072L3.8252 30.6381L11.2777 22.5261C13.7311 19.8616 16.3559 18.2392 18.9016 17.8699C21.421 17.4742 23.8216 18.3052 25.998 20.3101ZM31.7357 25.5994L45.4272 38.2225L45.5195 38.3148C47.6168 40.2933 48.6061 42.5621 48.4478 45.0682C48.2895 47.6271 46.9045 50.3839 44.4511 53.0615L42.2879 55.4225L26.0771 40.3989C25.4176 39.7921 25.3517 38.7765 25.932 38.0906C28.5701 34.9249 30.1133 32.8804 30.5222 32.0231C31.5379 29.8203 31.9468 27.6703 31.7357 25.5994Z" fill="white"/>
<path d="M74.1172 41.8446V21.9381H83.1121C87.7757 21.9381 90.8421 24.1613 90.8421 28.3905C90.8421 32.6069 87.7629 34.8428 83.1121 34.8428H78.9468V41.8446H74.1172ZM78.9468 30.767H83.1121C84.9648 30.767 85.8975 29.9748 85.8975 28.3905C85.8975 26.8956 84.7476 26.0395 83.1121 26.0395H78.9468V30.767Z" fill="white"/>
<path d="M93.4609 41.8446V21.9381H108.027V26.1545H98.3034V29.7065H107.234V33.8079H98.3034V37.6537H108.027V41.8446H93.4609Z" fill="white"/>
<path d="M111.478 41.8446V21.9381H116.32V37.6537H125.11V41.8446H111.478Z" fill="white"/>
<path d="M127.678 41.8445V21.9381H132.52V41.8445H127.678ZM127.857 20.4687V20.2388L131 16.8018H135.753V17.0701L131.728 20.4687H127.857Z" fill="white"/>
<path d="M138.322 39.3785C136.418 37.4109 135.447 34.9194 135.447 31.8785C135.447 28.8376 136.418 26.3333 138.322 24.3785C140.226 22.4364 142.717 21.4781 145.758 21.4781C148.314 21.4781 150.332 21.9125 151.853 22.7941V27.2788H151.584C150.268 26.3716 148.48 25.9245 146.244 25.9245C142.577 25.9245 140.405 28.2115 140.405 31.8785C140.405 35.5455 142.577 37.8581 146.244 37.8581C148.505 37.8581 150.294 37.4236 151.584 36.5037H151.853V40.9884C150.332 41.87 148.301 42.3044 145.758 42.3044C142.705 42.3044 140.226 41.3334 138.322 39.3658V39.3785Z" fill="white"/>
<path d="M164.028 42.3173C161.128 42.3173 158.892 41.4995 157.295 39.8257C155.685 38.152 154.893 35.8649 154.893 32.939V21.9509H159.735V32.939C159.735 36.2227 161.166 37.8581 164.041 37.8581C166.916 37.8581 168.321 36.2099 168.321 32.939V21.9509H173.164V32.939C173.164 35.8777 172.371 38.152 170.787 39.8257C169.164 41.4867 166.928 42.3173 164.028 42.3173Z" fill="white"/>
<path d="M176.857 41.8446V21.9381H181.7V37.6537H190.49V41.8446H176.857Z" fill="white"/>
<path d="M193.326 41.8446V41.5762L200.622 21.9381H206.486L213.782 41.5762V41.8446H208.71L207.445 38.2031H199.676L198.411 41.8446H193.326ZM200.98 34.3317H206.167L203.56 26.8828L200.98 34.3317Z" fill="white"/>
<path d="M215.659 40.9629V36.5037H215.889C218.036 37.4748 220.348 37.9475 222.84 37.9475C224.514 37.9475 225.983 37.3854 225.983 36.1332C225.983 35.3666 225.101 34.7789 223.376 34.37L220.272 33.6034C216.899 32.7474 215.199 30.8436 215.199 27.8921C215.199 25.784 215.991 24.1996 217.601 23.1136C219.186 22.0531 221.179 21.5292 223.606 21.5292C226.047 21.5292 227.976 21.9637 229.765 22.8197V27.2788H229.497C227.618 26.3461 225.472 25.8734 223.108 25.8734C221.498 25.8734 220.054 26.3973 220.054 27.6622C220.195 28.7482 221.166 29.1571 222.405 29.4254L225.549 30.192C228.807 30.9841 230.851 32.8879 230.851 35.9032C230.851 38.0114 230.059 39.5958 228.449 40.6818C226.839 41.7679 224.782 42.2917 222.354 42.2917C219.927 42.2917 217.652 41.8445 215.659 40.9629Z" fill="white"/>
<path d="M237.84 42.4578V22.5514H252.406V26.7677H242.682V30.3197H251.613V34.4211H242.682V42.445L237.84 42.4578Z" fill="white"/>
<path d="M252.074 42.4578V42.1895L259.37 22.5514H265.234L272.53 42.1895V42.4578H267.458L266.193 38.8164H258.424L257.159 42.4578H252.074ZM259.728 34.945H264.915L262.309 27.4961L259.728 34.945ZM260.073 21.0821V20.8521L263.216 17.4151H267.969V17.6834L263.957 21.0821H260.073Z" fill="white"/>
<path d="M275.967 39.9918C274.063 38.0242 273.092 35.5327 273.092 32.4918C273.092 29.4509 274.063 26.9466 275.967 24.9918C277.87 23.0497 280.362 22.0914 283.403 22.0914C285.958 22.0914 287.977 22.5258 289.497 23.4074V27.8921H289.229C287.913 26.985 286.124 26.5378 283.901 26.5378C280.234 26.5378 278.062 28.8248 278.062 32.4918C278.062 36.1588 280.234 38.4714 283.901 38.4714C286.163 38.4714 287.951 38.037 289.229 37.117H289.497V41.5889C287.977 42.4705 285.945 42.905 283.403 42.905C280.349 42.905 277.87 41.9339 275.967 39.9663V39.9918Z" fill="white"/>
<path d="M292.666 42.4578V22.5514H297.508V42.4578H292.666Z" fill="white"/>
<path d="M301.367 42.4578V22.5514H306.21V38.2669H315V42.4578H301.367Z" fill="white"/>
</svg>
